<svg width="1944" height="903" viewBox="0 0 1944 903" fill="none" xmlns="http://www.w3.org/2000/svg">
<mask id="path-1-inside-1" fill="white">
<path d="M251.6 41.1021L57.003 834.497H178.435C197.072 834.497 211.341 822.872 221.242 799.622C231.288 776.372 240.17 729.25 247.887 658.256L255.094 661.992L241.116 885.563H0V862.521L190.01 91.5455H95.2235C79.4985 91.5455 68.0688 96.5276 60.9343 106.492C53.9454 116.041 48.5581 130.157 44.7725 148.839C41.1325 167.107 37.7836 201.566 34.726 252.217H26.4267L32.542 41.1021H251.6Z"/>
<path d="M332.627 0C338.742 0 343.911 6.22759 348.134 18.6828C352.502 30.7228 354.686 45.4614 354.686 62.8986C354.686 80.3359 352.502 95.2821 348.134 107.737C343.911 120.192 338.742 126.42 332.627 126.42C326.512 126.42 321.27 120.192 316.902 107.737C312.534 95.2821 310.35 80.3359 310.35 62.8986C310.35 45.4614 312.461 30.7228 316.684 18.6828C321.052 6.22759 326.366 0 332.627 0ZM350.754 298.301V756.652C350.754 792.357 351.628 816.229 353.375 828.269C355.268 839.894 357.962 848.612 361.456 854.425C365.096 860.237 371.648 863.143 381.112 863.143V885.563H283.923V863.143C293.678 863.143 300.231 860.445 303.579 855.048C306.928 849.65 309.549 840.724 311.442 828.269C313.48 815.814 314.5 791.941 314.5 756.652V536.818C314.5 474.957 313.844 434.893 312.534 416.626C311.515 403.34 309.913 394.206 307.729 389.224C305.545 383.827 302.56 381.128 298.775 381.128C294.698 381.128 289.747 384.242 283.923 390.47L280.866 368.05L341.145 298.301H350.754Z"/>
<path d="M464.542 419.117C487.984 338.573 510.334 298.301 531.591 298.301C542.512 298.301 551.903 306.19 559.765 321.966C567.628 337.328 573.889 362.861 578.548 398.566C581.751 423.476 583.353 461.672 583.353 513.153V756.652C583.353 792.772 584.372 817.267 586.411 830.137C588.012 840.517 590.56 848.612 594.055 854.425C597.695 860.237 604.32 863.143 613.929 863.143V885.563H514.993V863.143H519.143C528.461 863.143 534.94 859.199 538.58 851.311C542.366 843.008 544.987 830.968 546.443 815.191C547.025 808.964 547.317 789.45 547.317 756.652V523.117C547.317 471.221 544.914 433.648 540.109 410.398C535.45 386.733 527.515 374.901 516.303 374.901C498.977 374.901 481.723 401.887 464.542 455.859V756.652C464.542 795.263 465.343 819.135 466.944 828.269C468.983 840.309 471.749 849.235 475.244 855.048C478.884 860.445 486.164 863.143 497.084 863.143V885.563H398.148V863.143H402.516C412.708 863.143 419.551 855.878 423.045 841.347C426.686 826.401 428.506 798.169 428.506 756.652V544.914C428.506 476.41 427.923 434.686 426.758 419.739C425.739 404.793 424.065 394.621 421.735 389.224C419.551 383.827 416.566 381.128 412.781 381.128C408.704 381.128 403.826 384.242 398.148 390.47L394.872 368.05L455.151 298.301H464.542V419.117Z"/>
<path d="M907.462 602.83H792.801L772.708 736.101C767.757 768.899 765.282 793.394 765.282 809.586C765.282 822.457 767.393 833.874 771.616 843.838C775.984 853.387 785.302 859.614 799.571 862.521V885.563H706.313V862.521C718.69 856.293 726.698 848.197 730.338 838.233C737.763 818.305 745.99 777.826 755.017 716.795L859.195 21.7966H866.839L969.925 724.268C978.224 780.732 985.723 817.474 992.421 834.497C999.264 851.103 1008.73 860.445 1020.81 862.521V885.563H903.968V862.521C915.761 860.86 923.697 855.255 927.774 845.706C931.996 836.157 934.107 824.532 934.107 810.832C934.107 792.564 931.195 763.71 925.371 724.268L907.462 602.83ZM901.347 556.746L851.114 215.475L799.571 556.746H901.347Z"/>
<path d="M1094.85 413.512C1114.22 336.705 1135.11 298.301 1157.53 298.301C1178.06 298.301 1195.97 323.419 1211.26 373.655C1226.55 423.476 1234.19 491.772 1234.19 578.543C1234.19 679.845 1222.4 761.426 1198.81 823.287C1178.57 876.429 1156 903 1131.11 903C1119.46 903 1107.59 896.98 1095.51 884.94C1083.57 872.9 1071.34 854.84 1058.81 830.76V239.762C1058.81 174.995 1058.23 135.139 1057.07 120.192C1056.05 105.246 1054.37 95.0745 1052.04 89.6772C1049.71 84.28 1046.8 81.5814 1043.31 81.5814C1039.23 81.5814 1034.14 84.9028 1028.02 91.5455L1024.96 69.749L1085.02 0H1094.85V413.512ZM1094.85 453.368V794.64C1102.28 815.399 1109.92 831.175 1117.78 841.97C1125.79 852.349 1133.95 857.539 1142.24 857.539C1155.49 857.539 1167.8 836.78 1179.15 795.263C1190.66 753.746 1196.41 693.338 1196.41 614.04C1196.41 540.97 1190.66 484.921 1179.15 445.895C1167.8 406.454 1154.84 386.733 1140.28 386.733C1132.56 386.733 1124.85 392.338 1117.13 403.548C1111.3 411.851 1103.88 428.458 1094.85 453.368Z"/>
<path d="M1314.56 0C1320.68 0 1325.85 6.22759 1330.07 18.6828C1334.44 30.7228 1336.62 45.4614 1336.62 62.8986C1336.62 80.3359 1334.44 95.2821 1330.07 107.737C1325.85 120.192 1320.68 126.42 1314.56 126.42C1308.45 126.42 1303.21 120.192 1298.84 107.737C1294.47 95.2821 1292.29 80.3359 1292.29 62.8986C1292.29 45.4614 1294.4 30.7228 1298.62 18.6828C1302.99 6.22759 1308.3 0 1314.56 0ZM1332.69 298.301V756.652C1332.69 792.357 1333.57 816.229 1335.31 828.269C1337.21 839.894 1339.9 848.612 1343.39 854.425C1347.03 860.237 1353.59 863.143 1363.05 863.143V885.563H1265.86V863.143C1275.62 863.143 1282.17 860.445 1285.52 855.048C1288.87 849.65 1291.49 840.724 1293.38 828.269C1295.42 815.814 1296.44 791.941 1296.44 756.652V536.818C1296.44 474.957 1295.78 434.893 1294.47 416.626C1293.45 403.34 1291.85 394.206 1289.67 389.224C1287.48 383.827 1284.5 381.128 1280.71 381.128C1276.64 381.128 1271.68 384.242 1265.86 390.47L1262.8 368.05L1323.08 298.301H1332.69Z"/>
<path d="M1529.47 821.419C1519.72 850.481 1510.18 871.447 1500.86 884.317C1491.54 896.772 1481.5 903 1470.72 903C1448.88 903 1429.81 877.052 1413.5 825.155C1397.19 772.843 1389.04 705.793 1389.04 624.004C1389.04 542.215 1398.07 467.484 1416.12 399.811C1434.18 331.723 1457.4 297.679 1485.79 297.679C1503.41 297.679 1517.97 313.663 1529.47 345.631V240.385C1529.47 175.203 1528.89 135.139 1527.72 120.192C1526.71 105.246 1525.03 95.0745 1522.7 89.6772C1520.37 84.28 1517.46 81.5814 1513.97 81.5814C1510.18 81.5814 1505.16 84.9028 1498.9 91.5455L1496.06 69.749L1555.68 0H1565.51V659.501C1565.51 726.344 1566.02 767.239 1567.04 782.185C1568.2 796.716 1569.95 806.888 1572.28 812.7C1574.75 818.512 1577.59 821.419 1580.8 821.419C1584.73 821.419 1589.97 817.89 1596.52 810.832L1598.92 832.628L1539.52 903H1529.47V821.419ZM1529.47 777.826V483.883C1528.6 455.652 1525.98 429.911 1521.61 406.661C1517.24 383.412 1511.42 365.974 1504.14 354.35C1497 342.31 1490.01 336.29 1483.17 336.29C1470.36 336.29 1458.93 352.689 1448.88 385.488C1435.63 428.666 1429.01 491.772 1429.01 574.806C1429.01 658.671 1435.41 723.023 1448.23 767.861C1461.04 812.285 1475.31 834.497 1491.03 834.497C1504.28 834.497 1517.1 815.606 1529.47 777.826Z"/>
<path d="M1662.7 0C1668.81 0 1673.98 6.22759 1678.2 18.6828C1682.57 30.7228 1684.76 45.4614 1684.76 62.8986C1684.76 80.3359 1682.57 95.2821 1678.2 107.737C1673.98 120.192 1668.81 126.42 1662.7 126.42C1656.58 126.42 1651.34 120.192 1646.97 107.737C1642.6 95.2821 1640.42 80.3359 1640.42 62.8986C1640.42 45.4614 1642.53 30.7228 1646.75 18.6828C1651.12 6.22759 1656.44 0 1662.7 0ZM1680.83 298.301V756.652C1680.83 792.357 1681.7 816.229 1683.45 828.269C1685.34 839.894 1688.03 848.612 1691.53 854.425C1695.17 860.237 1701.72 863.143 1711.18 863.143V885.563H1613.99V863.143C1623.75 863.143 1630.3 860.445 1633.65 855.048C1637 849.65 1639.62 840.724 1641.51 828.269C1643.55 815.814 1644.57 791.941 1644.57 756.652V536.818C1644.57 474.957 1643.92 434.893 1642.6 416.626C1641.59 403.34 1639.98 394.206 1637.8 389.224C1635.62 383.827 1632.63 381.128 1628.85 381.128C1624.77 381.128 1619.82 384.242 1613.99 390.47L1610.94 368.05L1671.22 298.301H1680.83Z"/>
<path d="M1794.61 419.117C1818.05 338.573 1840.4 298.301 1861.66 298.301C1872.58 298.301 1881.97 306.19 1889.84 321.966C1897.7 337.328 1903.96 362.861 1908.62 398.566C1911.82 423.476 1913.42 461.672 1913.42 513.153V756.652C1913.42 792.772 1914.44 817.267 1916.48 830.137C1918.08 840.517 1920.63 848.612 1924.13 854.425C1927.77 860.237 1934.39 863.143 1944 863.143V885.563H1845.06V863.143H1849.21C1858.53 863.143 1865.01 859.199 1868.65 851.311C1872.44 843.008 1875.06 830.968 1876.51 815.191C1877.1 808.964 1877.39 789.45 1877.39 756.652V523.117C1877.39 471.221 1874.98 433.648 1870.18 410.398C1865.52 386.733 1857.59 374.901 1846.37 374.901C1829.05 374.901 1811.79 401.887 1794.61 455.859V756.652C1794.61 795.263 1795.41 819.135 1797.02 828.269C1799.05 840.309 1801.82 849.235 1805.31 855.048C1808.95 860.445 1816.23 863.143 1827.15 863.143V885.563H1728.22V863.143H1732.59C1742.78 863.143 1749.62 855.878 1753.12 841.347C1756.76 826.401 1758.58 798.169 1758.58 756.652V544.914C1758.58 476.41 1757.99 434.686 1756.83 419.739C1755.81 404.793 1754.14 394.621 1751.81 389.224C1749.62 383.827 1746.64 381.128 1742.85 381.128C1738.77 381.128 1733.9 384.242 1728.22 390.47L1724.94 368.05L1785.22 298.301H1794.61V419.117Z"/>
</mask>
<path d="M251.6 41.1021L57.003 834.497H178.435C197.072 834.497 211.341 822.872 221.242 799.622C231.288 776.372 240.17 729.25 247.887 658.256L255.094 661.992L241.116 885.563H0V862.521L190.01 91.5455H95.2235C79.4985 91.5455 68.0688 96.5276 60.9343 106.492C53.9454 116.041 48.5581 130.157 44.7725 148.839C41.1325 167.107 37.7836 201.566 34.726 252.217H26.4267L32.542 41.1021H251.6Z" stroke="white" stroke-width="6" mask="url(#path-1-inside-1)"/>
<path d="M332.627 0C338.742 0 343.911 6.22759 348.134 18.6828C352.502 30.7228 354.686 45.4614 354.686 62.8986C354.686 80.3359 352.502 95.2821 348.134 107.737C343.911 120.192 338.742 126.42 332.627 126.42C326.512 126.42 321.27 120.192 316.902 107.737C312.534 95.2821 310.35 80.3359 310.35 62.8986C310.35 45.4614 312.461 30.7228 316.684 18.6828C321.052 6.22759 326.366 0 332.627 0ZM350.754 298.301V756.652C350.754 792.357 351.628 816.229 353.375 828.269C355.268 839.894 357.962 848.612 361.456 854.425C365.096 860.237 371.648 863.143 381.112 863.143V885.563H283.923V863.143C293.678 863.143 300.231 860.445 303.579 855.048C306.928 849.65 309.549 840.724 311.442 828.269C313.48 815.814 314.5 791.941 314.5 756.652V536.818C314.5 474.957 313.844 434.893 312.534 416.626C311.515 403.34 309.913 394.206 307.729 389.224C305.545 383.827 302.56 381.128 298.775 381.128C294.698 381.128 289.747 384.242 283.923 390.47L280.866 368.05L341.145 298.301H350.754Z" stroke="white" stroke-width="6" mask="url(#path-1-inside-1)"/>
<path d="M464.542 419.117C487.984 338.573 510.334 298.301 531.591 298.301C542.512 298.301 551.903 306.19 559.765 321.966C567.628 337.328 573.889 362.861 578.548 398.566C581.751 423.476 583.353 461.672 583.353 513.153V756.652C583.353 792.772 584.372 817.267 586.411 830.137C588.012 840.517 590.56 848.612 594.055 854.425C597.695 860.237 604.32 863.143 613.929 863.143V885.563H514.993V863.143H519.143C528.461 863.143 534.94 859.199 538.58 851.311C542.366 843.008 544.987 830.968 546.443 815.191C547.025 808.964 547.317 789.45 547.317 756.652V523.117C547.317 471.221 544.914 433.648 540.109 410.398C535.45 386.733 527.515 374.901 516.303 374.901C498.977 374.901 481.723 401.887 464.542 455.859V756.652C464.542 795.263 465.343 819.135 466.944 828.269C468.983 840.309 471.749 849.235 475.244 855.048C478.884 860.445 486.164 863.143 497.084 863.143V885.563H398.148V863.143H402.516C412.708 863.143 419.551 855.878 423.045 841.347C426.686 826.401 428.506 798.169 428.506 756.652V544.914C428.506 476.41 427.923 434.686 426.758 419.739C425.739 404.793 424.065 394.621 421.735 389.224C419.551 383.827 416.566 381.128 412.781 381.128C408.704 381.128 403.826 384.242 398.148 390.47L394.872 368.05L455.151 298.301H464.542V419.117Z" stroke="white" stroke-width="6" mask="url(#path-1-inside-1)"/>
<path d="M907.462 602.83H792.801L772.708 736.101C767.757 768.899 765.282 793.394 765.282 809.586C765.282 822.457 767.393 833.874 771.616 843.838C775.984 853.387 785.302 859.614 799.571 862.521V885.563H706.313V862.521C718.69 856.293 726.698 848.197 730.338 838.233C737.763 818.305 745.99 777.826 755.017 716.795L859.195 21.7966H866.839L969.925 724.268C978.224 780.732 985.723 817.474 992.421 834.497C999.264 851.103 1008.73 860.445 1020.81 862.521V885.563H903.968V862.521C915.761 860.86 923.697 855.255 927.774 845.706C931.996 836.157 934.107 824.532 934.107 810.832C934.107 792.564 931.195 763.71 925.371 724.268L907.462 602.83ZM901.347 556.746L851.114 215.475L799.571 556.746H901.347Z" stroke="white" stroke-width="6" mask="url(#path-1-inside-1)"/>
<path d="M1094.85 413.512C1114.22 336.705 1135.11 298.301 1157.53 298.301C1178.06 298.301 1195.97 323.419 1211.26 373.655C1226.55 423.476 1234.19 491.772 1234.19 578.543C1234.19 679.845 1222.4 761.426 1198.81 823.287C1178.57 876.429 1156 903 1131.11 903C1119.46 903 1107.59 896.98 1095.51 884.94C1083.57 872.9 1071.34 854.84 1058.81 830.76V239.762C1058.81 174.995 1058.23 135.139 1057.07 120.192C1056.05 105.246 1054.37 95.0745 1052.04 89.6772C1049.71 84.28 1046.8 81.5814 1043.31 81.5814C1039.23 81.5814 1034.14 84.9028 1028.02 91.5455L1024.96 69.749L1085.02 0H1094.85V413.512ZM1094.85 453.368V794.64C1102.28 815.399 1109.92 831.175 1117.78 841.97C1125.79 852.349 1133.95 857.539 1142.24 857.539C1155.49 857.539 1167.8 836.78 1179.15 795.263C1190.66 753.746 1196.41 693.338 1196.41 614.04C1196.41 540.97 1190.66 484.921 1179.15 445.895C1167.8 406.454 1154.84 386.733 1140.28 386.733C1132.56 386.733 1124.85 392.338 1117.13 403.548C1111.3 411.851 1103.88 428.458 1094.85 453.368Z" stroke="white" stroke-width="6" mask="url(#path-1-inside-1)"/>
<path d="M1314.56 0C1320.68 0 1325.85 6.22759 1330.07 18.6828C1334.44 30.7228 1336.62 45.4614 1336.62 62.8986C1336.62 80.3359 1334.44 95.2821 1330.07 107.737C1325.85 120.192 1320.68 126.42 1314.56 126.42C1308.45 126.42 1303.21 120.192 1298.84 107.737C1294.47 95.2821 1292.29 80.3359 1292.29 62.8986C1292.29 45.4614 1294.4 30.7228 1298.62 18.6828C1302.99 6.22759 1308.3 0 1314.56 0ZM1332.69 298.301V756.652C1332.69 792.357 1333.57 816.229 1335.31 828.269C1337.21 839.894 1339.9 848.612 1343.39 854.425C1347.03 860.237 1353.59 863.143 1363.05 863.143V885.563H1265.86V863.143C1275.62 863.143 1282.17 860.445 1285.52 855.048C1288.87 849.65 1291.49 840.724 1293.38 828.269C1295.42 815.814 1296.44 791.941 1296.44 756.652V536.818C1296.44 474.957 1295.78 434.893 1294.47 416.626C1293.45 403.34 1291.85 394.206 1289.67 389.224C1287.48 383.827 1284.5 381.128 1280.71 381.128C1276.64 381.128 1271.68 384.242 1265.86 390.47L1262.8 368.05L1323.08 298.301H1332.69Z" stroke="white" stroke-width="6" mask="url(#path-1-inside-1)"/>
<path d="M1529.47 821.419C1519.72 850.481 1510.18 871.447 1500.86 884.317C1491.54 896.772 1481.5 903 1470.72 903C1448.88 903 1429.81 877.052 1413.5 825.155C1397.19 772.843 1389.04 705.793 1389.04 624.004C1389.04 542.215 1398.07 467.484 1416.12 399.811C1434.18 331.723 1457.4 297.679 1485.79 297.679C1503.41 297.679 1517.97 313.663 1529.47 345.631V240.385C1529.47 175.203 1528.89 135.139 1527.72 120.192C1526.71 105.246 1525.03 95.0745 1522.7 89.6772C1520.37 84.28 1517.46 81.5814 1513.97 81.5814C1510.18 81.5814 1505.16 84.9028 1498.9 91.5455L1496.06 69.749L1555.68 0H1565.51V659.501C1565.51 726.344 1566.02 767.239 1567.04 782.185C1568.2 796.716 1569.95 806.888 1572.28 812.7C1574.75 818.512 1577.59 821.419 1580.8 821.419C1584.73 821.419 1589.97 817.89 1596.52 810.832L1598.92 832.628L1539.52 903H1529.47V821.419ZM1529.47 777.826V483.883C1528.6 455.652 1525.98 429.911 1521.61 406.661C1517.24 383.412 1511.42 365.974 1504.14 354.35C1497 342.31 1490.01 336.29 1483.17 336.29C1470.36 336.29 1458.93 352.689 1448.88 385.488C1435.63 428.666 1429.01 491.772 1429.01 574.806C1429.01 658.671 1435.41 723.023 1448.23 767.861C1461.04 812.285 1475.31 834.497 1491.03 834.497C1504.28 834.497 1517.1 815.606 1529.47 777.826Z" stroke="white" stroke-width="6" mask="url(#path-1-inside-1)"/>
<path d="M1662.7 0C1668.81 0 1673.98 6.22759 1678.2 18.6828C1682.57 30.7228 1684.76 45.4614 1684.76 62.8986C1684.76 80.3359 1682.57 95.2821 1678.2 107.737C1673.98 120.192 1668.81 126.42 1662.7 126.42C1656.58 126.42 1651.34 120.192 1646.97 107.737C1642.6 95.2821 1640.42 80.3359 1640.42 62.8986C1640.42 45.4614 1642.53 30.7228 1646.75 18.6828C1651.12 6.22759 1656.44 0 1662.7 0ZM1680.83 298.301V756.652C1680.83 792.357 1681.7 816.229 1683.45 828.269C1685.34 839.894 1688.03 848.612 1691.53 854.425C1695.17 860.237 1701.72 863.143 1711.18 863.143V885.563H1613.99V863.143C1623.75 863.143 1630.3 860.445 1633.65 855.048C1637 849.65 1639.62 840.724 1641.51 828.269C1643.55 815.814 1644.57 791.941 1644.57 756.652V536.818C1644.57 474.957 1643.92 434.893 1642.6 416.626C1641.59 403.34 1639.98 394.206 1637.8 389.224C1635.62 383.827 1632.63 381.128 1628.85 381.128C1624.77 381.128 1619.82 384.242 1613.99 390.47L1610.94 368.05L1671.22 298.301H1680.83Z" stroke="white" stroke-width="6" mask="url(#path-1-inside-1)"/>
<path d="M1794.61 419.117C1818.05 338.573 1840.4 298.301 1861.66 298.301C1872.58 298.301 1881.97 306.19 1889.84 321.966C1897.7 337.328 1903.96 362.861 1908.62 398.566C1911.82 423.476 1913.42 461.672 1913.42 513.153V756.652C1913.42 792.772 1914.44 817.267 1916.48 830.137C1918.08 840.517 1920.63 848.612 1924.13 854.425C1927.77 860.237 1934.39 863.143 1944 863.143V885.563H1845.06V863.143H1849.21C1858.53 863.143 1865.01 859.199 1868.65 851.311C1872.44 843.008 1875.06 830.968 1876.51 815.191C1877.1 808.964 1877.39 789.45 1877.39 756.652V523.117C1877.39 471.221 1874.98 433.648 1870.18 410.398C1865.52 386.733 1857.59 374.901 1846.37 374.901C1829.05 374.901 1811.79 401.887 1794.61 455.859V756.652C1794.61 795.263 1795.41 819.135 1797.02 828.269C1799.05 840.309 1801.82 849.235 1805.31 855.048C1808.95 860.445 1816.23 863.143 1827.15 863.143V885.563H1728.22V863.143H1732.59C1742.78 863.143 1749.62 855.878 1753.12 841.347C1756.76 826.401 1758.58 798.169 1758.58 756.652V544.914C1758.58 476.41 1757.99 434.686 1756.83 419.739C1755.81 404.793 1754.14 394.621 1751.81 389.224C1749.62 383.827 1746.64 381.128 1742.85 381.128C1738.77 381.128 1733.9 384.242 1728.22 390.47L1724.94 368.05L1785.22 298.301H1794.61V419.117Z" stroke="white" stroke-width="6" mask="url(#path-1-inside-1)"/>
</svg>
